<svg width="28" height="28" viewBox="0 0 28 28" fill="none" xmlns="http://www.w3.org/2000/svg">
<path d="M28 14C28 21.732 21.732 28 14 28C6.26801 28 0 21.732 0 14C0 6.26801 6.26801 0 14 0C21.732 0 28 6.26801 28 14Z" fill="#D9D9D9"/>
<path d="M4.93934 13.4393C4.35355 14.0251 4.35355 14.9749 4.93934 15.5607L14.4853 25.1066C15.0711 25.6924 16.0208 25.6924 16.6066 25.1066C17.1924 24.5208 17.1924 23.5711 16.6066 22.9853L8.12132 14.5L16.6066 6.01472C17.1924 5.42893 17.1924 4.47919 16.6066 3.8934C16.0208 3.30761 15.0711 3.30761 14.4853 3.8934L4.93934 13.4393ZM22 13L6 13V16L22 16V13Z" fill="black"/>
</svg>
